<?xml version="1.0" encoding="utf-8"?>
<!-- Generator: Adobe Illustrator 24.1.2, SVG Export Plug-In . SVG Version: 6.00 Build 0)  -->
<svg version="1.1" id="Layer_1" xmlns="http://www.w3.org/2000/svg" xmlns:xlink="http://www.w3.org/1999/xlink" x="0px" y="0px"
	 viewBox="0 0 163.4 39.1" style="enable-background:new 0 0 163.4 39.1;" xml:space="preserve">
<style type="text/css">
	.st0{enable-background:new    ;}
	.st1{fill:#FFFFFF;}
</style>
<g class="st0">
	<path class="st1" d="M2.6,24.5C4,25.2,6.3,26,8.6,26c2.5,0,3.9-1,3.9-2.6c0-1.5-1.2-2.4-4.1-3.4c-4-1.4-6.7-3.7-6.7-7.2
		c0-4.1,3.5-7.3,9.2-7.3c2.8,0,4.8,0.5,6.2,1.2l-1.2,4.4c-0.9-0.5-2.7-1.2-5-1.2c-2.4,0-3.5,1.1-3.5,2.3c0,1.5,1.3,2.2,4.5,3.4
		c4.3,1.6,6.3,3.8,6.3,7.2c0,4.1-3.1,7.5-9.8,7.5c-2.8,0-5.5-0.8-6.9-1.5L2.6,24.5z"/>
	<path class="st1" d="M25.8,5.9h5.4v10.7h0.1c0.5-0.9,1.1-1.8,1.7-2.7l5.5-8.1h6.8l-8,10.3l8.4,13.9h-6.4l-6-10.5l-2.1,2.6v7.9h-5.4
		V5.9z"/>
	<path class="st1" d="M57,30.1v-9.9L49.3,5.9h6.3l2.4,5.8c0.8,1.8,1.3,3.1,1.9,4.6H60c0.5-1.5,1.1-2.9,1.8-4.6l2.4-5.8h6.2l-8,14.1
		v10.1H57z"/>
	<path class="st1" d="M81.9,5.9v9.3h9V5.9h5.5v24.3H91V20h-9v10.1h-5.5V5.9H81.9z"/>
	<path class="st1" d="M127.4,17.7c0,8-4.8,12.8-11.9,12.8c-7.2,0-11.4-5.4-11.4-12.4c0-7.3,4.7-12.7,11.8-12.7
		C123.4,5.4,127.4,11,127.4,17.7z M109.9,18c0,4.8,2.2,8.1,5.9,8.1c3.7,0,5.8-3.5,5.8-8.2c0-4.4-2.1-8.1-5.8-8.1
		C112.1,9.8,109.9,13.3,109.9,18z"/>
	<path class="st1" d="M135,30.1V5.9h6.4l5,8.9c1.4,2.6,2.8,5.6,4,8.3h0.1c-0.3-3.2-0.4-6.5-0.4-10.2V5.9h5v24.3h-5.8l-5.2-9.4
		c-1.4-2.6-3.1-5.7-4.2-8.6h-0.1c0.2,3.2,0.3,6.7,0.3,10.6v7.3H135z"/>
</g>
</svg>
